<svg width="20" height="20" viewBox="0 0 20 20" fill="none" xmlns="http://www.w3.org/2000/svg">
<path d="M16.25 14H3.75C3.33594 14 3 14.3359 3 14.75C3 15.1641 3.33594 15.5 3.75 15.5H16.25C16.6641 15.5 17 15.1641 17 14.75C17 14.3359 16.6641 14 16.25 14Z" fill="#292929"/>
<path d="M3.75 5.5H16.25C16.6641 5.5 17 5.16406 17 4.75C17 4.33594 16.6641 4 16.25 4H3.75C3.33594 4 3 4.33594 3 4.75C3 5.16406 3.33594 5.5 3.75 5.5Z" fill="#292929"/>
<path d="M16.25 9H3.75C3.33594 9 3 9.33594 3 9.75C3 10.1641 3.33594 10.5 3.75 10.5H16.25C16.6641 10.5 17 10.1641 17 9.75C17 9.33594 16.6641 9 16.25 9Z" fill="#292929"/>
</svg>
