<svg width="18" height="18" viewBox="0 0 18 18" fill="none" xmlns="http://www.w3.org/2000/svg">
<path d="M7.3519 14.8463C6.92796 14.8463 6.57536 14.5103 6.55985 14.0832L6.29514 7.20087C6.27757 6.76246 6.61982 6.39331 7.05721 6.37677C7.06858 6.37573 7.07893 6.37573 7.08926 6.37573C7.5132 6.37573 7.8658 6.71178 7.88131 7.13883L8.14602 14.0212C8.16359 14.4596 7.82134 14.8287 7.38395 14.8453C7.37258 14.8463 7.36224 14.8463 7.3519 14.8463Z" fill="#EF4444"/>
<path d="M11.0599 14.8463C11.0495 14.8463 11.0392 14.8463 11.0278 14.8453C10.5904 14.8287 10.2482 14.4596 10.2657 14.0212L10.5304 7.13883C10.546 6.71178 10.8986 6.37573 11.3225 6.37573C11.3328 6.37573 11.3432 6.37573 11.3545 6.37677C11.7919 6.39331 12.1342 6.76246 12.1166 7.20087L11.8519 14.0832C11.8364 14.5103 11.4838 14.8463 11.0599 14.8463Z" fill="#EF4444"/>
<path d="M16.6176 3.17647H12.9118V2.38235C12.9118 1.06917 11.8426 0 10.5294 0H7.88235C6.56917 0 5.5 1.06917 5.5 2.38235V3.17647H1.79412C1.3557 3.17647 1 3.53217 1 3.97059C1 4.409 1.3557 4.76471 1.79412 4.76471H2.34473L2.79193 15.7148C2.8426 16.996 3.88901 18 5.17222 18H13.2395C14.5227 18 15.5692 16.996 15.6198 15.7148L16.067 4.76471H16.6176C17.0561 4.76471 17.4118 4.409 17.4118 3.97059C17.4118 3.53217 17.0561 3.17647 16.6176 3.17647ZM7.08823 2.38235C7.08823 1.94496 7.44496 1.58824 7.88235 1.58824H10.5294C10.9668 1.58824 11.3235 1.94496 11.3235 2.38235V3.17647H7.08823V2.38235ZM14.0337 15.6507C14.0161 16.0778 13.6676 16.4118 13.2395 16.4118H5.17222C4.74414 16.4118 4.39568 16.0778 4.3781 15.6507L3.93374 4.76471H14.478L14.0337 15.6507Z" fill="#EF4444"/>
</svg>
