<svg width="18" height="18" viewBox="0 0 18 18" fill="none" xmlns="http://www.w3.org/2000/svg">
<path d="M9.03325 15.9513C4.27386 15.9513 0 11.6812 0 9.66496C0 8.02544 2.52792 5.23765 5.20265 3.92689C6.37135 3.33731 7.68116 3.0171 8.9905 3C14.0088 3 18 7.78647 18 9.66496C18 11.6812 13.7575 15.9513 9.03325 15.9513ZM9 4.45946C7.91918 4.47371 6.82886 4.74071 5.85636 5.23147C5.85399 5.23289 5.85114 5.23432 5.84828 5.23574C3.31276 6.47666 1.45946 8.88439 1.45946 9.66496C1.45946 10.7786 5.0397 14.4918 9.03325 14.4918C12.9917 14.4918 16.5405 10.7786 16.5405 9.66496C16.5405 8.64448 13.1532 4.45946 9 4.45946Z" fill="black"/>
<path d="M8.83358 7.17689C9.05031 6.55719 8.37374 5.95203 7.76344 6.19394C7.30304 6.37644 6.87536 6.66193 6.51565 7.0511C5.0645 8.62109 5.34094 11.1725 7.25302 12.3659C8.42083 13.0947 9.97502 13.0354 11.0861 12.2228C11.7365 11.7471 12.1601 11.1179 12.3674 10.4386C12.5706 9.77278 11.9217 9.22201 11.2788 9.48904C10.7568 9.70586 10.2746 9.61379 10.0675 9.55412C9.51238 9.39417 9.06122 8.98004 8.85418 8.44123C8.69126 8.01725 8.69522 7.57247 8.83358 7.17689Z" fill="black"/>
</svg>
