<svg width="50" height="50" viewBox="0 0 50 50" fill="none" xmlns="http://www.w3.org/2000/svg">
<rect width="50" height="50" fill="black"/>
<path d="M40.9181 13H45.9214V28.3683C45.9214 30.0939 45.5093 31.6038 44.685 32.8979C43.8685 34.1921 42.7245 35.2013 41.2532 35.9254C39.7818 36.6418 38.0678 37 36.1111 37C34.1468 37 32.4289 36.6418 30.9576 35.9254C29.4862 35.2013 28.3422 34.1921 27.5257 32.8979C26.7091 31.6038 26.3008 30.0939 26.3008 28.3683V13H31.3042V27.9408C31.3042 28.8421 31.5006 29.6432 31.8935 30.3442C32.2941 31.0453 32.8564 31.5961 33.5806 31.9966C34.3047 32.3972 35.1482 32.5975 36.1111 32.5975C37.0818 32.5975 37.9253 32.3972 38.6417 31.9966C39.3658 31.5961 39.9243 31.0453 40.3172 30.3442C40.7178 29.6432 40.9181 28.8421 40.9181 27.9408V13Z" fill="white"/>
<path d="M23.7939 13V36.6649H19.4723L9.1767 21.7703H9.00337V36.6649H4V13H8.39095L18.6057 27.883H18.8137V13H23.7939Z" fill="white"/>
</svg>
