<svg width="18" height="18" viewBox="0 0 18 18" fill="none" xmlns="http://www.w3.org/2000/svg">
<g clip-path="url(#clip0_325_5993)">
<path d="M9 18C4.03694 18 0 13.9631 0 9C0 4.03694 4.03694 0 9 0C13.9631 0 18 4.03694 18 9C18 13.9631 13.9631 18 9 18ZM9 1.54286C4.88772 1.54286 1.54286 4.88772 1.54286 9C1.54286 13.1123 4.88772 16.4571 9 16.4571C13.1123 16.4571 16.4571 13.1123 16.4571 9C16.4571 4.88772 13.1123 1.54286 9 1.54286Z" fill="white"/>
<path d="M11.8286 8.2286H9.77142V6.17145C9.77142 5.74556 9.42588 5.40002 8.99999 5.40002C8.5741 5.40002 8.22857 5.74556 8.22857 6.17145V8.2286H6.17142C5.74553 8.2286 5.39999 8.57413 5.39999 9.00002C5.39999 9.42591 5.74553 9.77145 6.17142 9.77145H8.22857V11.8286C8.22857 12.2545 8.5741 12.6 8.99999 12.6C9.42588 12.6 9.77142 12.2545 9.77142 11.8286V9.77145H11.8286C12.2545 9.77145 12.6 9.42591 12.6 9.00002C12.6 8.57413 12.2545 8.2286 11.8286 8.2286Z" fill="white"/>
</g>
<defs>
<clipPath id="clip0_325_5993">
<rect width="18" height="18" fill="white"/>
</clipPath>
</defs>
</svg>
