<svg width="18" height="18" viewBox="0 0 18 18" fill="none" xmlns="http://www.w3.org/2000/svg">
<g clip-path="url(#clip0_325_5991)">
<path d="M9 18C4.03694 18 0 13.9631 0 9C0 4.03694 4.03694 0 9 0C13.9631 0 18 4.03694 18 9C18 13.9631 13.9631 18 9 18ZM9 1.54286C4.88772 1.54286 1.54286 4.88772 1.54286 9C1.54286 13.1123 4.88772 16.4571 9 16.4571C13.1123 16.4571 16.4571 13.1123 16.4571 9C16.4571 4.88772 13.1123 1.54286 9 1.54286Z" fill="#10B981"/>
<path d="M8.15922 13.056C7.94125 13.056 7.73232 12.9635 7.58566 12.8008L4.86658 9.77738C4.58132 9.45997 4.60743 8.9728 4.92383 8.68754C5.24023 8.40227 5.72741 8.42839 6.01368 8.74479L8.09794 11.0631L11.9039 5.87303C12.154 5.5305 12.6361 5.45215 12.9817 5.70729C13.3252 5.95841 13.3995 6.44156 13.1474 6.78508L8.78098 12.7405C8.64437 12.9284 8.42941 13.0439 8.19739 13.0549C8.18533 13.056 8.17228 13.056 8.15922 13.056Z" fill="#10B981"/>
</g>
<defs>
<clipPath id="clip0_325_5991">
<rect width="18" height="18" fill="white"/>
</clipPath>
</defs>
</svg>
