<svg width="20" height="20" viewBox="0 0 20 20" fill="none" xmlns="http://www.w3.org/2000/svg">
<path d="M6.75 18H4.25C3.00977 18 2 16.9902 2 15.75V13.25C2 12.0098 3.00977 11 4.25 11H6.75C7.99023 11 9 12.0098 9 13.25V15.75C9 16.9902 7.99023 18 6.75 18ZM4.25 12.5C3.83691 12.5 3.5 12.8369 3.5 13.25V15.75C3.5 16.1631 3.83691 16.5 4.25 16.5H6.75C7.16309 16.5 7.5 16.1631 7.5 15.75V13.25C7.5 12.8369 7.16309 12.5 6.75 12.5H4.25Z" fill="#292929"/>
<path d="M6.75 9H4.25C3.00977 9 2 7.99023 2 6.75V4.25C2 3.00977 3.00977 2 4.25 2H6.75C7.99023 2 9 3.00977 9 4.25V6.75C9 7.99023 7.99023 9 6.75 9ZM4.25 3.5C3.83691 3.5 3.5 3.83691 3.5 4.25V6.75C3.5 7.16309 3.83691 7.5 4.25 7.5H6.75C7.16309 7.5 7.5 7.16309 7.5 6.75V4.25C7.5 3.83691 7.16309 3.5 6.75 3.5H4.25Z" fill="#292929"/>
<path d="M15.75 18H13.25C12.0098 18 11 16.9902 11 15.75V13.25C11 12.0098 12.0098 11 13.25 11H15.75C16.9902 11 18 12.0098 18 13.25V15.75C18 16.9902 16.9902 18 15.75 18ZM13.25 12.5C12.8369 12.5 12.5 12.8369 12.5 13.25V15.75C12.5 16.1631 12.8369 16.5 13.25 16.5H15.75C16.1631 16.5 16.5 16.1631 16.5 15.75V13.25C16.5 12.8369 16.1631 12.5 15.75 12.5H13.25Z" fill="#292929"/>
<path d="M15.75 9H13.25C12.0098 9 11 7.99023 11 6.75V4.25C11 3.00977 12.0098 2 13.25 2H15.75C16.9902 2 18 3.00977 18 4.25V6.75C18 7.99023 16.9902 9 15.75 9ZM13.25 3.5C12.8369 3.5 12.5 3.83691 12.5 4.25V6.75C12.5 7.16309 12.8369 7.5 13.25 7.5H15.75C16.1631 7.5 16.5 7.16309 16.5 6.75V4.25C16.5 3.83691 16.1631 3.5 15.75 3.5H13.25Z" fill="#292929"/>
</svg>
