<svg width="18" height="18" viewBox="0 0 18 18" fill="none" xmlns="http://www.w3.org/2000/svg">
<g clip-path="url(#clip0_325_5990)">
<path d="M12.3667 11.7111C12.2335 11.7111 12.0983 11.6769 11.9742 11.6046L8.64671 9.65491C8.41061 9.51629 8.26533 9.26316 8.26533 8.98996V3.8471C8.26533 3.42121 8.61241 3.07567 9.0402 3.07567C9.46799 3.07567 9.81507 3.42121 9.81507 3.8471V8.549L12.7612 10.2747C13.1295 10.4906 13.2526 10.9637 13.0356 11.3314C12.8914 11.5754 12.6321 11.7111 12.3667 11.7111ZM17.5921 11.925C17.7777 11.3876 17.9129 10.8281 17.9926 10.2606C18.0511 9.83873 17.7555 9.44901 17.3317 9.38974C16.904 9.32948 16.5165 9.62579 16.457 10.0477C16.3914 10.5167 16.2804 10.9788 16.1271 11.4228C15.9878 11.8256 16.2027 12.2645 16.6073 12.4031C16.6911 12.4323 16.7758 12.4453 16.8596 12.4453C17.1814 12.4453 17.4821 12.2444 17.5921 11.925ZM17.2541 7.79565C17.6708 7.6952 17.925 7.27835 17.8241 6.86451C17.6889 6.31105 17.4992 5.76764 17.2601 5.24833C17.0815 4.86061 16.6174 4.68985 16.232 4.86965C15.8435 5.04744 15.673 5.50547 15.8516 5.8932C16.0494 6.32211 16.2068 6.77111 16.3188 7.22813C16.4045 7.58171 16.7213 7.81775 17.0704 7.81775C17.131 7.81775 17.1925 7.81071 17.2541 7.79565ZM15.2997 3.57288C15.5943 3.26551 15.5832 2.77634 15.2735 2.48203C14.8618 2.09129 14.4078 1.7357 13.9245 1.42533C13.5623 1.19431 13.0841 1.29877 12.853 1.65636C12.622 2.01495 12.7259 2.49208 13.0851 2.7231C13.4866 2.98025 13.863 3.27455 14.204 3.59899C14.3533 3.74163 14.546 3.81194 14.7388 3.81194C14.9426 3.81194 15.1474 3.73159 15.2997 3.57288ZM11.3628 1.06373C11.4435 0.644863 11.1681 0.241077 10.7483 0.160714C10.1894 0.0542366 9.61529 0 9.04019 0H8.97763C8.54984 0 8.23403 0.345539 8.23403 0.771429C8.23403 1.19732 8.61239 1.54286 9.04018 1.54286C9.51741 1.54286 9.99364 1.58806 10.4557 1.67545C10.5052 1.6855 10.5546 1.68951 10.603 1.68951C10.9673 1.68951 11.2922 1.43237 11.3628 1.06373ZM15.8718 14.8932C16.1523 14.5718 16.118 14.0846 15.7941 13.8054C15.4722 13.5271 14.9829 13.5603 14.7014 13.8827C13.2758 15.519 11.2125 16.4572 9.04019 16.4572C4.90955 16.4572 1.54975 13.1123 1.54975 9C1.54975 5.99565 3.34568 3.29866 6.12432 2.12746C6.51882 1.96172 6.70346 1.50871 6.53597 1.11697C6.3695 0.724218 5.91144 0.539404 5.52097 0.707143C2.16723 2.11941 0 5.37488 0 8.99999C0 13.9631 4.05496 18 9.04019 18C11.6625 18 14.1525 16.868 15.8718 14.8932Z" fill="#2563EB"/>
</g>
<defs>
<clipPath id="clip0_325_5990">
<rect width="18" height="18" fill="white"/>
</clipPath>
</defs>
</svg>
